name analog
datacolumns 19
datarows 47
range 0.446 0.46900000000000003
endheader
time	ground_force_vx	ground_force_vy	ground_force_vz	ground_force_px	ground_force_py	ground_force_pz	l_ground_force_vx	l_ground_force_vy	l_ground_force_vz	l_ground_force_px	l_ground_force_py	l_ground_force_pz	ground_torque_x	ground_torque_y	ground_torque_z	l_ground_torque_x	l_ground_torque_y	l_ground_torque_z
0.446	-0.0	-0.0	-0.0	-8.789783477783203	57.37897109985352	-385.4454650878906	5.379754066467285	-64.70368194580078	-480.5146179199219	-0.0	-0.0	-0.0	-0.0	-0.0	-0.0	120222.296875	-30312.6015625	-3307.1181640625
0.4465	-0.0	-0.0	-0.0	-8.050000190734863	57.21673202514648	-382.6803283691406	5.609636306762695	-64.80735778808594	-479.4059448242188	-0.0	-0.0	-0.0	-0.0	-0.0	-0.0	119986.6171875	-30286.44140625	-3221.3955078125
0.447	-0.0	-0.0	-0.0	-8.18627643585205	57.221717834472656	-381.97369384765625	4.99383544921875	-64.8905258178711	-477.3522644042969	-0.0	-0.0	-0.0	-0.0	-0.0	-0.0	119387.84375	-30040.390625	-3357.98046875
0.4475	-0.0	-0.0	-0.0	-8.385787963867188	57.179500579833984	-378.9620971679688	4.659812927246094	-64.78644561767578	-476.4899291992188	-0.0	-0.0	-0.0	-0.0	-0.0	-0.0	118872.734375	-30226.44140625	-3464.50830078125
0.448	-0.0	-0.0	-0.0	-7.650950908660889	56.99659729003906	-378.87835693359375	4.362893581390381	-64.75579071044922	-473.697021484375	-0.0	-0.0	-0.0	-0.0	-0.0	-0.0	118309.75	-29887.98828125	-3344.360107421875
0.4485	-0.0	-0.0	-0.0	-7.481398105621338	56.31369400024414	-375.4965515136719	4.169406890869141	-64.9117202758789	-471.1708068847656	-0.0	-0.0	-0.0	-0.0	-0.0	-0.0	118064.5703125	-29522.765625	-3402.2421875
0.449	-0.0	-0.0	-0.0	-7.1623735427856445	56.063026428222656	-374.017578125	4.195034980773926	-64.828125	-470.1417236328125	-0.0	-0.0	-0.0	-0.0	-0.0	-0.0	117003.046875	-29477.1796875	-3356.949462890625
0.4495	-0.0	-0.0	-0.0	-6.958419799804688	56.02477645874024	-370.5531921386719	3.903274536132813	-65.0721206665039	-467.7803039550781	-0.0	-0.0	-0.0	-0.0	-0.0	-0.0	116766.5234375	-29360.79296875	-3290.87451171875
0.45	-0.0	-0.0	-0.0	-6.062243938446045	55.63457107543945	-369.0569152832031	3.7258529663085938	-64.97942352294922	-466.117431640625	-0.0	-0.0	-0.0	-0.0	-0.0	-0.0	116103.4296875	-29257.59375	-3305.103515625
0.4505	-0.0	-0.0	-0.0	-6.351342678070068	55.52431869506836	-367.2760620117188	3.903274536132813	-64.67250061035156	-464.7373962402344	-0.0	-0.0	-0.0	-0.0	-0.0	-0.0	115922.0390625	-29012.626953125	-3261.1572265625
0.451	-0.0	-0.0	-0.0	-5.701850891113281	54.99346160888672	-364.3821105957031	4.3045268058776855	-64.91644287109375	-462.0779113769531	-0.0	-0.0	-0.0	-0.0	-0.0	-0.0	115352.140625	-28905.240234375	-3088.66796875
0.4515	-0.0	-0.0	-0.0	-5.895243644714356	54.67599487304688	-365.272705078125	4.076723575592041	-64.34037017822266	-461.2449035644531	-0.0	-0.0	-0.0	-0.0	-0.0	-0.0	114728.6015625	-28801.70703125	-3001.098876953125
0.452	-0.0	-0.0	-0.0	-5.145730495452881	54.88292694091797	-361.5574951171875	4.059475421905518	-64.56315612792969	-457.6241455078125	-0.0	-0.0	-0.0	-0.0	-0.0	-0.0	114508.6953125	-28759.3203125	-3053.43603515625
0.4525	-0.0	-0.0	-0.0	-5.217123031616211	54.40904235839844	-361.7546081542969	4.098270416259766	-64.29452514648438	-457.6541137695313	-0.0	-0.0	-0.0	-0.0	-0.0	-0.0	114145.15625	-28436.037109375	-2943.0478515625
0.453	-0.0	-0.0	-0.0	-4.746360778808594	54.70788192749024	-361.6692504882813	4.545533180236816	-63.94490051269531	-456.6762390136719	-0.0	-0.0	-0.0	-0.0	-0.0	-0.0	113678.875	-28444.2109375	-2965.179443359375
0.4535	-0.0	-0.0	-0.0	-4.888192176818848	54.56930541992188	-360.6819152832031	4.701671600341797	-63.56697082519531	-456.0055541992188	-0.0	-0.0	-0.0	-0.0	-0.0	-0.0	113343.328125	-28200.736328125	-2898.4912109375
0.454	-0.0	-0.0	-0.0	-4.838923454284668	54.29896545410156	-360.4142150878906	4.680315971374512	-63.750274658203125	-454.4402770996094	-0.0	-0.0	-0.0	-0.0	-0.0	-0.0	113405.0078125	-28055.830078125	-2875.99365234375
0.4545	-0.0	-0.0	-0.0	-4.236057281494141	54.43711471557617	-361.1207580566406	4.460106372833252	-63.45754623413086	-454.6921081542969	-0.0	-0.0	-0.0	-0.0	-0.0	-0.0	113054.140625	-28258.6171875	-2808.515869140625
0.455	-0.0	-0.0	-0.0	-4.238868236541748	54.145355224609375	-360.6823120117188	4.729170799255371	-63.23832702636719	-452.8616027832031	-0.0	-0.0	-0.0	-0.0	-0.0	-0.0	113029.4609375	-28155.94921875	-2747.935791015625
0.4555	-0.0	-0.0	-0.0	-4.187708854675293	54.08570098876953	-360.7887268066406	4.658764362335205	-63.15000915527344	-452.2471923828125	-0.0	-0.0	-0.0	-0.0	-0.0	-0.0	112744.03125	-28206.048828125	-2636.541748046875
0.456	-0.0	-0.0	-0.0	-4.260427474975586	54.08049774169922	-358.11456298828125	4.414059638977051	-62.59313201904297	-449.61175537109375	-0.0	-0.0	-0.0	-0.0	-0.0	-0.0	112429.15625	-28304.7109375	-2681.589111328125
0.4565	-0.0	-0.0	-0.0	-4.057899951934815	53.94559097290039	-359.279296875	4.612960815429688	-62.83956527709961	-449.1887817382813	-0.0	-0.0	-0.0	-0.0	-0.0	-0.0	112144.3828125	-28017.138671875	-2733.69189453125
0.457	-0.0	-0.0	-0.0	-4.190682888031006	53.6999626159668	-358.0383605957031	4.615463733673096	-62.46489334106445	-447.69720458984375	-0.0	-0.0	-0.0	-0.0	-0.0	-0.0	112040.578125	-28135.458984375	-2608.60546875
0.4575	-0.0	-0.0	-0.0	-4.303880214691162	53.60877990722656	-355.91082763671875	4.564985275268555	-62.40047454833984	-445.9420166015625	-0.0	-0.0	-0.0	-0.0	-0.0	-0.0	111607.5546875	-27803.810546875	-2629.44580078125
0.458	-0.0	-0.0	-0.0	-3.790466070175171	53.589168548583984	-355.5580749511719	4.524250030517578	-61.99730682373047	-445.6114501953125	-0.0	-0.0	-0.0	-0.0	-0.0	-0.0	111253.1953125	-27966.517578125	-2541.199462890625
0.4585	-0.0	-0.0	-0.0	-3.7923545837402335	53.745635986328125	-353.88629150390625	4.191053867340088	-61.95872116088867	-444.5468444824219	-0.0	-0.0	-0.0	-0.0	-0.0	-0.0	110968.6015625	-28030.58203125	-2601.476806640625
0.459	-0.0	-0.0	-0.0	-3.363015651702881	53.298282623291016	-356.08526611328125	4.256106853485107	-61.648536682128906	-442.5536193847656	-0.0	-0.0	-0.0	-0.0	-0.0	-0.0	110571.6640625	-27733.900390625	-2652.731201171875
0.4595	-0.0	-0.0	-0.0	-3.814141035079956	53.56424331665039	-355.4725036621094	4.589375972747803	-61.53673553466797	-442.3824768066406	-0.0	-0.0	-0.0	-0.0	-0.0	-0.0	110368.75	-27583.7734375	-2422.41259765625
0.46	-0.0	-0.0	-0.0	-3.771631240844727	54.1912841796875	-353.2668151855469	4.477297782897949	-61.60179138183594	-440.63616943359375	-0.0	-0.0	-0.0	-0.0	-0.0	-0.0	110140.6484375	-27622.478515625	-2504.241943359375
0.4605	-0.0	-0.0	-0.0	-4.258845329284668	53.78828430175781	-354.1473999023437	4.125844478607178	-61.56179428100586	-440.5436096191406	-0.0	-0.0	-0.0	-0.0	-0.0	-0.0	109890.3984375	-27233.595703125	-2452.96728515625
0.461	-0.0	-0.0	-0.0	-4.4605255126953125	54.14613723754883	-356.1889343261719	3.816047191619873	-61.47189331054688	-439.9368896484375	-0.0	-0.0	-0.0	-0.0	-0.0	-0.0	109933.625	-27411.09765625	-2437.067138671875
0.4615	-0.0	-0.0	-0.0	-4.928624153137207	54.61388397216797	-356.2753295898437	3.993323802947998	-61.58196640014648	-439.6731262207031	-0.0	-0.0	-0.0	-0.0	-0.0	-0.0	109875.4921875	-27416.5390625	-2570.765625
0.462	-0.0	-0.0	-0.0	-4.884495735168457	54.79313659667969	-357.2432556152344	3.5703108310699463	-61.62675476074219	-438.534423828125	-0.0	-0.0	-0.0	-0.0	-0.0	-0.0	109776.59375	-27162.826171875	-2564.62060546875
0.4625	-0.0	-0.0	-0.0	-4.861584186553955	54.70320510864258	-358.5682373046875	3.3929150104522705	-61.80337142944336	-439.3275451660156	-0.0	-0.0	-0.0	-0.0	-0.0	-0.0	109670.3359375	-27215.544921875	-2549.74267578125
0.463	-0.0	-0.0	-0.0	-4.8407745361328125	55.17108917236328	-358.2998046875	2.903623580932617	-62.04645919799805	-438.7972412109375	-0.0	-0.0	-0.0	-0.0	-0.0	-0.0	109567.7734375	-27214.0546875	-2534.822021484375
0.4635	-0.0	-0.0	-0.0	-5.196391105651856	55.3504638671875	-357.857177734375	3.371009826660156	-61.67041778564453	-437.6600036621094	-0.0	-0.0	-0.0	-0.0	-0.0	-0.0	109646.203125	-27159.201171875	-2668.064697265625
0.464	-0.0	-0.0	-0.0	-5.3300323486328125	55.37216567993164	-359.53717041015625	2.860745429992676	-61.62663269042969	-438.3612365722656	-0.0	-0.0	-0.0	-0.0	-0.0	-0.0	109726.1015625	-27187.296875	-2690.739013671875
0.4645	-0.0	-0.0	-0.0	-5.820675373077393	55.327266693115234	-358.8318176269531	2.92802095413208	-62.02433013916016	-439.40618896484375	-0.0	-0.0	-0.0	-0.0	-0.0	-0.0	109947.8046875	-27431.654296875	-2660.951171875
0.465	-0.0	-0.0	-0.0	-5.954929828643799	55.684349060058594	-360.77349853515625	2.7054688930511475	-61.9798469543457	-439.3196105957031	-0.0	-0.0	-0.0	-0.0	-0.0	-0.0	109994.125	-27589.109375	-2772.71484375
0.4655	-0.0	-0.0	-0.0	-5.977108001708984	55.52824401855469	-360.1552429199219	2.528099298477173	-61.86918258666992	-440.4553833007813	-0.0	-0.0	-0.0	-0.0	-0.0	-0.0	110120.890625	-27452.802734375	-2824.61083984375
0.466	-0.0	-0.0	-0.0	-6.534706592559815	55.617225646972656	-360.244140625	2.661494731903076	-62.06811141967773	-439.49407958984375	-0.0	-0.0	-0.0	-0.0	-0.0	-0.0	110081.703125	-27605.80859375	-2668.775390625
0.4665	-0.0	-0.0	-0.0	-7.247840404510498	56.375125885009766	-361.7425231933594	2.129085063934326	-62.3771858215332	-440.2799987792969	-0.0	-0.0	-0.0	-0.0	-0.0	-0.0	110314.03125	-27620.380859375	-2876.913818359375
0.467	-0.0	-0.0	-0.0	-7.872929573059082	56.41954803466797	-361.5675659179688	2.1954827308654785	-62.355201721191406	-440.8911437988281	-0.0	-0.0	-0.0	-0.0	-0.0	-0.0	110494.890625	-27631.166015625	-2891.718017578125
0.4675	-0.0	-0.0	-0.0	-8.007050514221191	56.7536506652832	-363.0668640136719	1.4636170864105225	-62.6422119140625	-441.1526184082031	-0.0	-0.0	-0.0	-0.0	-0.0	-0.0	110345.9921875	-27787.859375	-2914.585693359375
0.468	-0.0	-0.0	-0.0	-8.430048942565918	57.065914154052734	-364.7459106445313	1.2638535499572754	-62.7741813659668	-441.415283203125	-0.0	-0.0	-0.0	-0.0	-0.0	-0.0	110633.7109375	-27813.439453125	-2885.133544921875
0.4685	-0.0	-0.0	-0.0	-8.520020484924316	57.08843994140625	-366.5975036621094	1.0868350267410278	-62.68619155883789	-441.5910034179688	-0.0	-0.0	-0.0	-0.0	-0.0	-0.0	110827.34375	-27648.689453125	-3048.340087890625
0.46900000000000003	-0.0	-0.0	-0.0	-8.00640869140625	57.73492431640625	-368.0134887695313	1.019866704940796	-62.90727615356445	-440.45355224609375	-0.0	-0.0	-0.0	-0.0	-0.0	-0.0	110475.4765625	-27739.755859375	-3129.771728515625
